<svg id="visual" viewBox="0 0 3840 2160" width="3840" height="2160" xmlns="http://www.w3.org/2000/svg" xmlns:xlink="http://www.w3.org/1999/xlink" version="1.1"><path d="M0 368L128 371.7C256 375.3 512 382.7 768 404.3C1024 426 1280 462 1536 444C1792 426 2048 354 2304 346.8C2560 339.7 2816 397.3 3072 418.8C3328 440.3 3584 425.7 3712 418.3L3840 411L3840 0L3712 0C3584 0 3328 0 3072 0C2816 0 2560 0 2304 0C2048 0 1792 0 1536 0C1280 0 1024 0 768 0C512 0 256 0 128 0L0 0Z" fill="#ffffff"></path><path d="M0 584L128 580.5C256 577 512 570 768 588C1024 606 1280 649 1536 631C1792 613 2048 534 2304 534C2560 534 2816 613 3072 641.7C3328 670.3 3584 648.7 3712 637.8L3840 627L3840 409L3712 416.3C3584 423.7 3328 438.3 3072 416.8C2816 395.3 2560 337.7 2304 344.8C2048 352 1792 424 1536 442C1280 460 1024 424 768 402.3C512 380.7 256 373.3 128 369.7L0 366Z" fill="#fbfbfb"></path><path d="M0 822L128 843.5C256 865 512 908 768 915.2C1024 922.3 1280 893.7 1536 875.7C1792 857.7 2048 850.3 2304 857.5C2560 864.7 2816 886.3 3072 897.2C3328 908 3584 908 3712 908L3840 908L3840 625L3712 635.8C3584 646.7 3328 668.3 3072 639.7C2816 611 2560 532 2304 532C2048 532 1792 611 1536 629C1280 647 1024 604 768 586C512 568 256 575 128 578.5L0 582Z" fill="#f7f7f8"></path><path d="M0 1405L128 1433.8C256 1462.7 512 1520.3 768 1516.7C1024 1513 1280 1448 1536 1426.3C1792 1404.7 2048 1426.3 2304 1426.3C2560 1426.3 2816 1404.7 3072 1415.5C3328 1426.3 3584 1469.7 3712 1491.3L3840 1513L3840 906L3712 906C3584 906 3328 906 3072 895.2C2816 884.3 2560 862.7 2304 855.5C2048 848.3 1792 855.7 1536 873.7C1280 891.7 1024 920.3 768 913.2C512 906 256 863 128 841.5L0 820Z" fill="#f3f4f6"></path><path d="M0 1664L128 1692.8C256 1721.7 512 1779.3 768 1779.3C1024 1779.3 1280 1721.7 1536 1710.8C1792 1700 2048 1736 2304 1739.7C2560 1743.3 2816 1714.7 3072 1693.2C3328 1671.7 3584 1657.3 3712 1650.2L3840 1643L3840 1511L3712 1489.3C3584 1467.7 3328 1424.3 3072 1413.5C2816 1402.7 2560 1424.3 2304 1424.3C2048 1424.3 1792 1402.7 1536 1424.3C1280 1446 1024 1511 768 1514.7C512 1518.3 256 1460.7 128 1431.8L0 1403Z" fill="#f3f4f6"></path><path d="M0 1859L128 1869.7C256 1880.3 512 1901.7 768 1898C1024 1894.3 1280 1865.7 1536 1855C1792 1844.3 2048 1851.7 2304 1858.8C2560 1866 2816 1873 3072 1869.3C3328 1865.7 3584 1851.3 3712 1844.2L3840 1837L3840 1641L3712 1648.2C3584 1655.3 3328 1669.7 3072 1691.2C2816 1712.7 2560 1741.3 2304 1737.7C2048 1734 1792 1698 1536 1708.8C1280 1719.7 1024 1777.3 768 1777.3C512 1777.3 256 1719.7 128 1690.8L0 1662Z" fill="#f7f7f8"></path><path d="M0 2031L128 2027.5C256 2024 512 2017 768 1999C1024 1981 1280 1952 1536 1948.3C1792 1944.7 2048 1966.3 2304 1980.8C2560 1995.3 2816 2002.7 3072 2009.8C3328 2017 3584 2024 3712 2027.5L3840 2031L3840 1835L3712 1842.2C3584 1849.3 3328 1863.7 3072 1867.3C2816 1871 2560 1864 2304 1856.8C2048 1849.7 1792 1842.3 1536 1853C1280 1863.7 1024 1892.3 768 1896C512 1899.7 256 1878.3 128 1867.7L0 1857Z" fill="#fbfbfb"></path><path d="M0 2161L128 2161C256 2161 512 2161 768 2161C1024 2161 1280 2161 1536 2161C1792 2161 2048 2161 2304 2161C2560 2161 2816 2161 3072 2161C3328 2161 3584 2161 3712 2161L3840 2161L3840 2029L3712 2025.5C3584 2022 3328 2015 3072 2007.8C2816 2000.7 2560 1993.3 2304 1978.8C2048 1964.3 1792 1942.7 1536 1946.3C1280 1950 1024 1979 768 1997C512 2015 256 2022 128 2025.5L0 2029Z" fill="#ffffff"></path></svg>
